<svg version="1.1" id="Layer_1" xmlns="http://www.w3.org/2000/svg" xmlns:xlink="http://www.w3.org/1999/xlink" x="0px" y="0px"
	 width="100%" viewBox="0 0 1024 1024" enable-background="new 0 0 1024 1024" xml:space="preserve">
<path fill="#0F766E" opacity="1.000000" stroke="none" 
	d="
M522.000000,771.089966 
	C487.170166,771.092957 452.840332,771.105957 418.510498,771.087280 
	C410.737946,771.083069 410.738220,771.032410 410.731171,763.334839 
	C410.724274,755.835632 410.901123,748.329895 410.638184,740.839661 
	C410.488556,736.576355 411.779388,733.220032 414.369385,729.863586 
	C457.428772,674.061340 500.398590,618.190002 543.367432,562.317871 
	C544.661377,560.635376 546.318359,559.139404 546.799377,556.811218 
	C544.962952,554.726013 542.490845,555.413452 540.291809,555.411194 
	C501.795807,555.371216 463.299713,555.391724 424.803650,555.392517 
	C417.619629,555.392700 417.622223,555.379578 417.631165,548.280579 
	C417.643555,538.448242 417.889740,528.607971 417.559052,518.787048 
	C417.398315,514.013123 418.800140,512.458435 423.688965,512.508301 
	C445.684357,512.732727 467.683441,512.582947 489.681213,512.582153 
	C524.667114,512.580811 559.652954,512.606323 594.638855,512.575134 
	C598.798889,512.571411 602.959839,512.309204 607.118225,512.120178 
	C610.580200,511.962860 612.311768,513.227783 612.243103,517.032898 
	C612.074707,526.362183 612.123657,535.697449 612.231384,545.028564 
	C612.264893,547.934875 610.970642,550.116089 609.326843,552.262085 
	C568.500305,605.560425 527.671631,658.857178 486.867096,712.172424 
	C483.287476,716.849548 479.871674,721.652100 476.302856,726.500916 
	C479.089539,728.291260 481.481537,727.668396 483.729584,727.670105 
	C525.058655,727.700928 566.387817,727.676697 607.716919,727.659363 
	C615.320190,727.656128 615.318848,727.646484 615.317810,735.360840 
	C615.316589,745.026550 615.326843,754.692200 615.314758,764.357910 
	C615.306763,770.751282 615.077454,771.024475 608.490173,771.033630 
	C579.826782,771.073303 551.163391,771.073730 522.000000,771.089966 
z"/>
<path fill="#0F766E" opacity="1.000000" stroke="none" 
	d="
M350.874603,338.911987 
	C380.346100,298.296265 419.022247,271.282837 467.603882,260.510742 
	C533.841675,245.823776 593.641357,260.691437 644.958496,305.422455 
	C682.183411,337.869873 703.605469,379.461639 711.000916,428.224152 
	C712.170898,435.938202 712.408508,443.792419 713.115662,451.578339 
	C713.468689,455.466400 712.213623,457.392303 707.852783,457.313873 
	C695.523254,457.091980 683.183777,457.023956 670.856323,457.281494 
	C666.045593,457.382019 665.124451,455.311768 664.882080,451.039734 
	C661.606262,393.283447 635.021301,349.441223 584.619324,321.197388 
	C526.406311,288.576447 453.653961,299.795410 406.409332,347.202759 
	C382.292847,371.402283 368.057495,400.492828 362.696045,434.038727 
	C361.754639,439.928894 360.917877,445.909088 361.219940,451.934174 
	C361.406891,455.663513 359.970764,457.355042 355.981873,457.299927 
	C343.317566,457.124847 330.649078,457.147552 317.983368,457.243591 
	C314.353027,457.271149 312.856171,455.918793 313.028259,452.217102 
	C314.944153,410.996704 326.418732,372.977203 350.874603,338.911987 
z"/>
<path fill="#0F766E" opacity="1.000000" stroke="none" 
	d="
M545.786499,439.662567 
	C535.154541,454.634064 520.774719,459.835938 503.623260,455.963989 
	C486.935944,452.196930 477.748199,440.444946 474.233368,424.170349 
	C469.331299,401.472260 488.290924,378.898712 511.948242,378.556885 
	C527.584290,378.330963 539.513367,384.790131 547.072510,398.140045 
	C554.807068,411.799927 554.236755,425.826080 545.786499,439.662567 
z"/>
</svg>