<svg xmlns="http://www.w3.org/2000/svg" width="2511" height="1105" viewBox="206 188 2511 1105" preserveAspectRatio="xMidYMid meet">
<g transform="translate(0.000000,1504.000000) scale(0.100000,-0.100000)"
fill="#0F766E" stroke="none">
<path d="M12845 12953 c-607 -24 -1276 -121 -1866 -268 -946 -237 -1804 -592
-2654 -1098 -1163 -693 -2210 -1625 -3194 -2847 -643 -798 -1400 -1869 -2531
-3580 l-340 -515 0 -362 0 -363 2125 0 2125 0 -2 448 -3 447 -1452 3 -1452 2
268 403 c539 807 894 1320 1368 1977 914 1266 1682 2095 2648 2856 583 460
1405 941 2085 1219 860 352 1709 552 2660 627 218 17 1011 17 1220 0 705 -57
1353 -184 1927 -377 634 -213 1122 -436 1633 -746 869 -527 1594 -1206 2095
-1964 306 -462 556 -974 815 -1670 78 -209 340 -983 340 -1005 0 -7 -255 -10
-781 -10 l-780 0 7 23 c24 80 308 963 369 1149 l75 227 -65 133 c-134 278
-286 547 -463 818 l-94 145 -53 -150 c-130 -368 -269 -757 -340 -950 -42 -115
-123 -340 -180 -500 -57 -159 -128 -357 -159 -440 -61 -167 -85 -236 -279
-775 -291 -812 -429 -1196 -522 -1455 -53 -148 -109 -305 -126 -347 -16 -43
-29 -80 -29 -83 0 -3 256 -4 570 -3 l570 3 222 663 222 662 1056 0 1057 0 171
-493 c94 -270 194 -557 223 -637 28 -80 54 -156 58 -170 l7 -25 582 -3 c320
-1 582 1 582 4 0 4 -24 72 -54 153 -30 80 -125 342 -211 581 -86 239 -202 559
-257 710 -55 151 -176 489 -270 750 -496 1386 -540 1504 -696 1895 -242 606
-460 1020 -790 1500 -178 258 -354 476 -603 745 -383 412 -837 804 -1299 1122
-507 349 -1042 641 -1600 875 -721 301 -1641 545 -2370 627 -25 3 -83 10 -130
15 -308 37 -589 53 -965 55 -214 2 -426 1 -470 -1z"/>
<path d="M16200 9943 c-55 -9 -151 -46 -206 -79 -177 -106 -284 -293 -284
-496 0 -171 51 -299 165 -413 80 -80 157 -125 269 -155 107 -30 288 -25 386 9
175 61 306 193 367 368 36 107 38 265 3 363 -73 210 -221 343 -440 396 -51 13
-202 17 -260 7z"/>
<path d="M2280 9263 l0 -453 1089 0 1090 0 127 158 c70 86 157 193 194 237
206 248 397 482 403 492 7 10 -290 13 -1447 15 l-1456 3 0 -452z"/>
<path d="M8680 8254 c-113 -8 -309 -36 -419 -61 -481 -106 -873 -383 -1055
-747 -41 -82 -113 -283 -130 -362 -7 -30 -6 -31 36 -37 24 -4 120 -18 213 -32
94 -14 249 -36 345 -50 96 -14 216 -32 265 -40 50 -8 95 -15 101 -15 6 0 18
28 28 63 39 140 148 291 274 379 155 108 429 160 659 124 337 -51 533 -246
572 -566 24 -198 -6 -253 -181 -320 -144 -56 -311 -85 -753 -135 -422 -47
-626 -84 -818 -146 -359 -116 -610 -310 -749 -576 -95 -181 -132 -342 -131
-573 0 -243 42 -421 149 -630 147 -288 391 -492 714 -601 442 -148 1001 -101
1353 114 167 101 274 207 390 384 33 51 62 92 63 90 1 -1 7 -109 13 -240 6
-131 14 -265 18 -297 l6 -60 488 0 489 0 -1 28 c0 15 -6 83 -14 152 -10 97
-13 418 -14 1441 -1 823 -5 1347 -11 1400 -51 419 -219 748 -485 950 -315 238
-680 350 -1180 362 -99 3 -205 3 -235 1z m890 -2541 c0 -370 -25 -507 -123
-683 -57 -101 -196 -240 -297 -297 -160 -90 -349 -130 -568 -120 -393 18 -614
222 -615 567 0 164 46 274 156 376 121 112 280 165 697 229 353 55 578 111
700 176 19 10 38 18 43 19 4 0 7 -120 7 -267z"/>
<path d="M13515 8253 c-293 -15 -548 -90 -742 -219 -159 -106 -346 -308 -430
-466 -40 -74 -43 -70 -43 58 -1 167 -12 528 -16 533 -3 3 -221 5 -487 5 l-482
1 3 -2120 3 -2120 517 0 517 0 -3 1135 c-3 1181 1 1348 38 1531 54 264 167
478 320 605 74 61 231 138 327 161 107 25 338 25 443 0 223 -53 389 -200 479
-424 37 -92 67 -206 87 -338 15 -98 17 -249 19 -1390 l3 -1280 511 -3 512 -2
-4 1457 c-3 1612 1 1508 -68 1792 -34 137 -70 235 -131 356 -183 361 -517 610
-931 696 -97 20 -333 37 -442 32z"/>
<path d="M25060 8250 c-47 -5 -114 -13 -150 -20 -88 -16 -271 -76 -345 -112
-220 -110 -421 -300 -550 -521 -22 -37 -42 -67 -45 -67 -3 0 -5 142 -6 316
l-1 315 -484 1 -484 1 3 -44 c2 -24 5 -1343 8 -2931 l5 -2888 510 0 509 0 0
1105 c0 730 3 1105 10 1105 6 0 10 -4 10 -9 0 -21 143 -192 226 -271 199 -189
462 -321 733 -367 133 -23 405 -23 528 0 338 63 577 190 823 436 158 158 241
271 338 461 205 398 293 830 279 1374 -10 399 -69 710 -191 1014 -169 420
-402 701 -756 911 -181 108 -409 174 -661 191 -159 11 -185 11 -309 0z m30
-860 c230 -28 433 -139 559 -307 138 -184 228 -426 265 -708 64 -487 -19 -978
-214 -1274 -127 -191 -299 -312 -510 -356 -95 -20 -299 -20 -397 1 -481 99
-758 542 -780 1245 -9 297 20 532 94 743 68 195 138 311 260 427 133 127 277
199 448 224 115 16 170 17 275 5z"/>
<path d="M15823 8162 l-23 -3 0 -2120 0 -2119 515 0 515 0 0 2123 0 2123 -492
-1 c-271 0 -503 -1 -515 -3z"/>
</g>
</svg>